<svg id="logo" xmlns="http://www.w3.org/2000/svg" role="img" viewBox="0 0 700.117 700.117">
    <title>Logo</title>
    <path fill="currentColor" d="M441.08 408.03C388.37 259.55 359.1 177.07 353.24 160.57C350.27 151.71 342.09 145.75 332.88 145.76C329.71 145.76 304.36 145.76 301.19 145.76C291.98 145.75 283.8 151.71 280.83 160.57C274.97 177.07 245.69 259.55 192.99 408.03C183.56 408.03 178.31 408.03 177.26 408.03C171.33 408.03 166.51 412.92 166.51 418.96C166.51 421.15 166.51 438.63 166.51 440.82C166.51 446.85 171.33 451.74 177.26 451.74C185.86 451.74 254.68 451.74 263.28 451.74C269.21 451.74 274.03 446.85 274.03 440.82C274.03 438.63 274.03 421.15 274.03 418.96C274.03 412.92 269.21 408.03 263.28 408.03C262.4 408.03 258.01 408.03 250.12 408.03L265.78 364.32L368.29 364.32L383.95 408.03C376.06 408.03 371.67 408.03 370.79 408.03C364.86 408.03 360.04 412.92 360.04 418.96C360.04 421.15 360.04 438.63 360.04 440.82C360.04 446.85 364.86 451.74 370.79 451.74C379.39 451.74 448.21 451.74 456.81 451.74C462.74 451.74 467.56 446.85 467.56 440.82C467.56 438.63 467.56 421.15 467.56 418.96C467.56 412.92 462.74 408.03 456.81 408.03C454.71 408.03 449.47 408.03 441.08 408.03ZM285.35 309.68L317.03 221.24L348.72 309.68L285.35 309.68Z" id="c49J5YkR4G"></path><path fill="currentColor" d="M10 320C10 491.25 148.75 630 320 630C491.25 630 630 491.25 630 320C630 148.75 491.25 10 320 10C148.75 10 10 148.75 10 320ZM70 320C70 181.88 181.88 70 320 70C458.13 70 570 181.88 570 320C570 458.13 458.13 570 320 570C181.88 570 70 458.13 70 320Z"></path>
  </svg>